<svg xmlns="http://www.w3.org/2000/svg" viewBox="0 0 512 340">
  <path fill="#C1272D" stroke="#fff" stroke-width="12" d="M125 152c17 0 25-10 32-23 15-28 47-38 75-24 16-52 82-72 121-27 49 3 73 38 65 82 53 10 70 63 36 99-31 33-77 34-114 17-18 42-70 51-105 20-33 34-93 17-98-28-36 10-72-8-82-44-19 3-41-6-46-26 18-20 62-17 96-26 5-5 11-13 20-20z"/>
  <path fill="none" stroke="#fff" stroke-width="12" stroke-linecap="round" d="M304 90c-35-18-63 26-38 46 17 13 38-3 30-22M184 266c-37 13-52-32-21-47 22-10 37 12 21 27"/>
</svg>
